dummy_motion.mot
version=1
nRows=25
nColumns=11
inDegrees=No
endheader
                time	         pelvis_tilt	           pelvis_tx	           pelvis_ty	       hip_flexion_l	       hip_flexion_r	        knee_angle_l	        knee_angle_r	       ankle_angle_l	       ankle_angle_r	    lumbar_extension	
          7.50150030	          0.00000000	          0.00000000	          0.00000000	         -0.64420976	         -0.47672471	         -0.48835123	         -0.58172912	          0.27099772	          0.05668745	         -0.10597529	
          7.50350070	          0.00000000	          0.00000000	          0.00000000	         -0.25758214	          0.86760168	         -1.05239244	         -1.32971035	          0.52124190	         -0.02930987	         -0.45819295	
          7.50550110	          0.00000000	          0.00000000	          0.00000000	         -0.18565642	         -0.86172886	         -0.52634912	         -1.34402753	         -0.19496627	          0.34951960	          0.19513227	
          7.50750150	          0.00000000	          0.00000000	          0.00000000	          0.07110040	          0.18740332	         -0.00461178	         -0.93802723	         -0.38754119	          0.20306268	         -0.22405552	
          7.50950190	          0.00000000	          0.00000000	          0.00000000	         -0.65653251	         -0.20219714	         -1.33137172	         -0.89520225	          0.07172201	          0.40731651	         -0.00329691	
          7.51150230	          0.00000000	          0.00000000	          0.00000000	          0.46690388	         -0.59366949	         -1.41712000	         -1.26266956	          0.31681387	          0.33139852	          0.47642704	
          7.51350270	          0.00000000	          0.00000000	          0.00000000	         -0.41361301	         -0.28843483	         -0.49504941	         -0.08993879	          0.42971364	         -0.10957882	         -0.26165289	
          7.51550310	          0.00000000	          0.00000000	          0.00000000	          0.73234738	         -0.32386909	         -1.09063591	         -0.10770539	          0.26131761	          0.10704625	          0.45887761	
          7.51750350	          0.00000000	          0.00000000	          0.00000000	          0.27347601	         -0.80076378	         -0.60544607	         -1.29972707	          0.39535175	          0.31669266	         -0.44686843	
          7.51950390	          0.00000000	          0.00000000	          0.00000000	         -0.72424944	          0.83282948	         -0.50898290	         -1.11190613	         -0.34323303	         -0.51626075	          0.03262983	
          7.52150430	          0.00000000	          0.00000000	          0.00000000	          0.34873260	          0.75925150	         -1.50246181	         -1.32185741	         -0.12285296	         -0.46489592	          0.51816727	
          7.52350470	          0.00000000	          0.00000000	          0.00000000	          0.40109476	          0.55588037	         -1.01751906	         -0.00705444	          0.11636266	         -0.30825618	          0.34193995	
          7.52550510	          0.00000000	          0.00000000	          0.00000000	          0.74050532	          0.58240790	         -0.54335129	         -1.39523965	          0.15712326	         -0.05635802	          0.09974673	
          7.52750550	          0.00000000	          0.00000000	          0.00000000	          0.47183944	          0.24385783	         -1.30219107	         -0.63846691	         -0.14567141	          0.05029471	          0.06295281	
          7.52950590	          0.00000000	          0.00000000	          0.00000000	          0.58779552	          0.75771546	         -0.38912740	         -0.50844632	          0.13788735	          0.17468337	          0.43023894	
          7.53150630	          0.00000000	          0.00000000	          0.00000000	          0.57398387	          0.05847181	         -0.90066640	         -1.28119750	         -0.17939945	         -0.21157068	         -0.20510261	
          7.53350670	          0.00000000	          0.00000000	          0.00000000	          0.52059129	          0.25923604	         -0.20393486	         -0.98631606	         -0.16942816	         -0.34568100	          0.21034593	
          7.53550710	          0.00000000	          0.00000000	          0.00000000	         -0.53704556	          0.20192449	         -1.44889820	         -0.60577795	          0.51352958	         -0.26656182	         -0.27274704	
          7.53750750	          0.00000000	          0.00000000	          0.00000000	         -0.61973463	         -0.12956061	         -0.48689209	         -0.73226013	          0.25076539	         -0.12203997	          0.50352089	
          7.53950790	          0.00000000	          0.00000000	          0.00000000	         -0.81001033	          0.42469573	         -1.55528448	         -1.35514038	         -0.01448818	         -0.22251058	          0.48470733	
          7.54150830	          0.00000000	          0.00000000	          0.00000000	          0.25219195	         -0.55761579	         -1.51531959	         -1.11085538	         -0.25319060	          0.30633123	         -0.07586950	
          7.54350870	          0.00000000	          0.00000000	          0.00000000	          0.69213173	         -0.31940776	         -1.22983313	         -0.71073684	          0.28754507	          0.36931876	          0.23849416	
          7.54550910	          0.00000000	          0.00000000	          0.00000000	          0.23283755	         -0.36862862	         -0.12793046	         -1.18691217	         -0.24344757	          0.08548272	         -0.41712213	
          7.54750950	          0.00000000	          0.00000000	          0.00000000	          0.81595663	         -0.39434306	         -0.99071590	         -0.13267185	         -0.45923548	          0.28355750	          0.03423053	
          7.54950990	          0.00000000	          0.00000000	          0.00000000	         -0.64363025	          0.79716646	         -0.72690203	         -0.03725433	         -0.28625304	          0.30178241	         -0.36527851	
